<?xml version="1.0" standalone="no"?>
<!DOCTYPE svg PUBLIC "-//W3C//DTD SVG 20010904//EN"
 "http://www.w3.org/TR/2001/REC-SVG-20010904/DTD/svg10.dtd">
<svg version="1.0" xmlns="http://www.w3.org/2000/svg"
 width="1024.000000pt" height="1024.000000pt" viewBox="0 0 1024.000000 1024.000000"
 preserveAspectRatio="xMidYMid meet">

<g transform="translate(0.000000,1024.000000) scale(0.100000,-0.100000)"
fill="#000000" stroke="none">
<path d="M4932 9915 c-176 -40 -316 -191 -344 -373 l-11 -71 -266 -3 c-254 -3
-268 -4 -318 -27 -68 -30 -134 -102 -162 -174 -19 -51 -21 -78 -21 -235 l0
-177 -76 -13 c-223 -35 -384 -222 -384 -445 0 -137 42 -239 138 -333 59 -59
155 -112 217 -120 22 -3 55 -7 73 -10 l32 -5 0 -334 c0 -317 1 -337 21 -391
26 -70 89 -136 162 -170 l52 -24 987 0 c970 0 988 0 1042 20 69 26 130 85 164
158 l27 57 3 342 3 342 37 6 c137 20 207 53 290 137 261 261 110 714 -257 771
l-69 10 -4 191 c-3 168 -6 197 -25 237 -30 66 -86 124 -151 156 l-57 28 -267
3 -267 3 -6 37 c-19 126 -47 188 -122 272 -49 55 -133 109 -201 129 -67 19
-170 22 -240 6z m1028 -1680 l0 -925 -925 0 -925 0 0 925 0 925 925 0 925 0 0
-925z"/>
<path d="M4529 8691 c-104 -21 -179 -115 -179 -225 1 -174 194 -280 346 -191
69 41 104 107 104 197 0 143 -129 247 -271 219z"/>
<path d="M5439 8686 c-149 -40 -211 -215 -124 -348 14 -20 46 -50 72 -65 86
-51 214 -33 279 39 155 170 -6 435 -227 374z"/>
<path d="M4420 7775 l0 -155 615 0 615 0 0 155 0 155 -615 0 -615 0 0 -155z"/>
<path d="M2148 6025 l-3 -210 -257 -3 -258 -2 0 -155 0 -155 260 0 260 0 0
-355 0 -355 -755 0 -755 0 0 -425 0 -425 920 0 920 0 -2 1146 -3 1145 -162 2
-163 2 -2 -210z m-3 -1660 l0 -130 -582 -3 -583 -2 0 128 c0 71 3 132 7 135 3
4 266 6 582 5 l576 -3 0 -130z"/>
<path d="M3980 5613 l0 -623 160 0 160 0 2 238 3 237 98 3 97 3 0 -341 0 -340
-760 0 -761 0 3 -147 3 -148 743 -3 744 -2 -7 -43 c-3 -23 -12 -76 -20 -117
-7 -41 -21 -120 -30 -175 -9 -55 -20 -119 -26 -142 -17 -78 -29 -73 169 -73
l177 0 48 293 48 292 -1 853 c0 561 -3 852 -10 852 -5 0 -79 1 -162 1 l-153 0
-5 -223 -5 -223 -95 0 -95 0 -5 225 -5 225 -158 0 -157 0 0 -622z"/>
<path d="M5547 6223 c-87 -17 -184 -69 -244 -130 -59 -60 -118 -172 -133 -252
-17 -90 -13 -433 6 -505 44 -171 167 -301 334 -353 79 -24 276 -24 350 1 190
64 313 211 345 414 l7 42 69 0 69 0 2 -432 3 -433 163 -3 162 -2 -2 830 -3
831 -152 0 c-84 0 -157 -1 -163 -1 -6 0 -10 -84 -10 -230 l0 -230 -70 0 -69 0
-7 38 c-25 147 -82 245 -190 327 -89 68 -144 86 -284 93 -80 5 -146 3 -183 -5z
m240 -294 c40 -15 82 -57 104 -104 16 -34 19 -66 19 -220 0 -99 -5 -196 -10
-216 -13 -48 -86 -116 -134 -124 -19 -4 -71 -6 -114 -4 -68 4 -84 8 -115 32
-21 16 -47 47 -60 70 -21 39 -22 54 -22 237 0 180 2 198 21 235 43 79 91 104
201 105 45 0 94 -5 110 -11z"/>
<path d="M6844 6225 c-2 -5 -5 -449 -7 -985 l-2 -975 -580 0 -580 0 -3 233 -2
232 -170 0 -170 0 0 -395 0 -395 920 0 920 0 0 1145 0 1144 -161 3 c-101 2
-163 -1 -165 -7z"/>
<path d="M9180 6230 c0 -3 0 -447 0 -986 0 -540 -3 -989 -6 -998 -6 -14 -63
-16 -595 -16 l-589 0 0 253 c0 183 -3 256 -12 265 -13 13 -262 18 -292 6 -14
-5 -16 -51 -16 -410 l0 -404 920 0 920 0 -2 1146 -3 1145 -163 2 c-89 1 -162
0 -162 -3z"/>
<path d="M480 6060 l0 -160 315 0 315 0 0 -24 c0 -13 -9 -77 -21 -143 -11 -65
-27 -156 -35 -203 -17 -94 -36 -204 -60 -337 -8 -49 -18 -107 -21 -130 l-6
-43 180 0 179 0 32 193 c18 105 39 226 47 267 70 378 75 415 75 578 l0 162
-500 0 -500 0 0 -160z"/>
<path d="M3088 6003 c-37 -120 -115 -375 -173 -568 -59 -192 -110 -360 -112
-373 l-5 -22 172 2 173 3 7 25 c4 14 15 54 25 90 10 36 23 85 30 110 7 25 34
122 59 215 67 243 77 276 86 270 4 -3 10 -15 13 -27 2 -13 14 -57 25 -98 12
-41 53 -189 91 -328 38 -140 71 -255 73 -257 3 -3 307 -8 339 -5 4 0 -9 51
-28 113 -19 61 -89 290 -155 507 -66 217 -131 431 -144 474 -13 44 -24 81 -24
83 0 2 -87 3 -193 3 l-193 0 -66 -217z"/>
<path d="M7572 6063 l3 -158 360 -5 360 -5 -45 -32 c-49 -36 -351 -242 -552
-378 l-128 -86 0 -205 c0 -113 4 -204 8 -202 4 2 131 91 282 199 151 107 287
203 301 213 26 16 27 16 90 -28 35 -25 114 -78 174 -120 176 -119 345 -236
388 -267 68 -49 67 -51 67 155 l0 185 -105 68 c-57 37 -152 99 -210 136 -58
38 -105 72 -105 76 0 4 90 72 200 150 l200 142 0 159 0 160 -645 0 -646 0 3
-157z"/>
<path d="M2880 1980 l0 -1150 160 0 160 0 0 595 0 594 123 3 122 3 3 157 3
157 -123 3 -123 3 -3 393 -2 392 -160 0 -160 0 0 -1150z"/>
<path d="M1322 2948 l3 -163 338 -3 c185 -1 337 -4 337 -6 0 -2 -48 -136 -106
-297 -58 -162 -111 -312 -119 -334 -13 -41 -169 -474 -207 -575 -11 -30 -33
-91 -48 -135 -16 -44 -48 -136 -73 -205 -113 -313 -137 -383 -131 -391 3 -5
87 -9 187 -9 l183 0 92 258 c150 415 157 432 162 432 6 0 38 -96 115 -345 26
-82 60 -194 77 -248 l32 -97 183 0 c101 0 183 2 183 5 0 5 -108 335 -312 950
l-89 269 52 141 c28 77 71 196 96 265 25 69 62 172 84 230 l39 106 0 157 0
157 -540 0 -540 0 2 -162z"/>
<path d="M3767 2708 l3 -403 355 -3 355 -2 0 -105 0 -105 -440 0 -440 0 0
-142 0 -143 1042 2 1043 3 3 140 3 140 -435 0 c-386 0 -435 2 -440 16 -9 23
-7 167 2 181 6 10 93 13 358 15 l349 3 0 145 0 145 -697 3 -698 2 0 105 0 105
698 2 697 3 3 148 3 147 -883 0 -883 0 2 -402z"/>
<path d="M6820 2970 l0 -140 165 0 166 0 -3 -152 -3 -153 -162 -3 -163 -2 0
-135 0 -135 950 0 950 0 0 135 0 135 -150 0 c-137 0 -150 2 -160 19 -11 21
-14 231 -4 269 6 22 9 22 160 22 l154 0 0 140 0 140 -950 0 -950 0 0 -140z
m1235 -295 l0 -150 -277 -3 -278 -2 0 155 0 155 278 -2 277 -3 0 -150z"/>
<path d="M6722 2008 l3 -123 1039 -3 c825 -2 1041 0 1048 10 4 7 8 64 8 126
l0 112 -1050 0 -1051 0 3 -122z"/>
<path d="M6877 1763 c-4 -3 -7 -60 -7 -125 l0 -118 743 -2 742 -3 3 -47 3 -48
-745 0 -746 0 0 -300 0 -300 901 2 900 3 0 125 0 125 -746 3 -746 2 3 48 3 47
743 5 743 5 -1 283 c0 155 0 287 0 292 0 11 -1782 15 -1793 3z"/>
<path d="M3998 1631 c-150 -48 -250 -158 -284 -310 -15 -64 -15 -87 -6 -144
32 -183 170 -317 359 -346 97 -15 1058 -15 1156 0 185 28 324 155 357 326 37
188 -59 372 -238 456 l-67 32 -610 2 c-569 2 -614 1 -667 -16z m1239 -325 c31
-34 35 -43 30 -79 -3 -25 -15 -50 -31 -66 l-26 -26 -548 -3 c-399 -2 -554 1
-575 9 -52 22 -75 109 -41 158 36 50 39 51 617 48 l539 -2 35 -39z"/>
</g>
</svg>
